<svg width="118" height="20" viewBox="0 0 118 20" fill="none" xmlns="http://www.w3.org/2000/svg"><path d="M27.0122 0.00159454H22.8356L26.7247 11.1382L27.8289 14.4823L29.7861 19.8578H33.7573L27.0122 0.00159454Z" fill="black"></path><path d="M10.9723 0.00157879H7.9425V3.97283H10.9581C14.8772 3.94913 17.6226 5.83998 17.6226 9.92971C17.6226 14.0194 14.8788 15.9103 10.9581 15.8866H7.9425V3.97283H3.97125V15.8866H0V19.8578H10.9723C16.8786 19.8578 21.8435 16.0524 21.8435 9.92812C21.8435 3.80381 16.8786 0 10.9723 0V0.00159454Z" fill="black"></path><path d="M3.97125 0H0V3.97125H3.97125V0Z" fill="black"></path><path d="M59.2593 8.17314H60.8626V1.37431H63.4217V7.62939e-06H56.6876V1.37431H59.2593V8.17314Z" fill="black"></path><path d="M44.0407 7.62939e-06H39.733V1.43749H41.1705V6.73565H39.733V8.17314H44.0186C45.2966 8.17314 46.3692 7.79402 47.1211 7.07528C47.8761 6.35337 48.2758 5.32028 48.2758 4.08815C48.2758 1.56703 46.6535 0.00158642 44.0423 0.00158642L44.0407 7.62939e-06ZM44.036 6.73565H42.8134V1.43749H44.036C45.6488 1.43749 46.5745 2.40266 46.5745 4.08657C46.5745 5.77048 45.6488 6.73565 44.036 6.73565Z" fill="black"></path><path d="M45.2319 11.6863H42.1768L39.4772 19.8578H41.12L41.8498 17.6463H45.5588L46.2886 19.8578H47.9315L45.2319 11.6863ZM42.2921 16.2704L43.6838 12.0559L45.1165 16.2704H42.2921Z" fill="black"></path><path d="M54.8078 11.6863V19.4882L52.1129 11.6863H50.5443H50.4164H48.8478V19.8578H50.5443V12.0559L53.2392 19.8578H54.8078H54.9358H56.5044V11.6863H54.8078Z" fill="black"></path><path d="M64.0993 11.6863V19.4882L61.4044 11.6863H59.8358H59.7079H58.1393V19.8578H59.8358V12.0559L62.5307 19.8578H64.0993H64.2273H65.7959V11.6863H64.0993Z" fill="black"></path><path d="M116.141 11.6863V19.4882L113.446 11.6863H111.878H111.75H110.181V19.8578H111.878V12.0559L114.572 19.8578H116.141H116.269H117.838V11.6863H116.141Z" fill="black"></path><path d="M71.1414 11.5457C68.7198 11.5457 67.0707 13.3623 67.0707 15.7729C67.0707 18.1834 68.7214 20 71.1414 20C73.5615 20 75.2122 18.1834 75.2122 15.7729C75.2122 13.3623 73.5615 11.5457 71.1414 11.5457ZM71.1414 18.6257C69.8051 18.6257 68.813 17.4789 68.813 15.7729C68.813 14.0668 69.8051 12.92 71.1414 12.92C72.4778 12.92 73.4825 14.0668 73.4825 15.7729C73.4825 17.4789 72.4857 18.6257 71.1414 18.6257Z" fill="black"></path><path d="M104.845 11.5457C102.423 11.5457 100.774 13.3623 100.774 15.7729C100.774 18.1834 102.425 20 104.845 20C107.265 20 108.916 18.1834 108.916 15.7729C108.916 13.3623 107.265 11.5457 104.845 11.5457ZM104.845 18.6257C103.508 18.6257 102.516 17.4789 102.516 15.7729C102.516 14.0668 103.508 12.92 104.845 12.92C106.181 12.92 107.186 14.0668 107.186 15.7729C107.186 17.4789 106.189 18.6257 104.845 18.6257Z" fill="black"></path><path d="M92.4889 19.8578H94.0923V13.0606H96.6513V11.6863H89.9188V13.0606H92.4889V19.8578Z" fill="black"></path><path d="M68.7259 0.00159454H65.712L63.0123 8.17315H64.6567L65.385 5.96163H69.0545L69.7827 8.17315H71.4271L68.7275 0.00159454H68.7259ZM65.8273 4.58417L67.2189 0.369654L68.6106 4.58417H65.8257H65.8273Z" fill="black"></path><path d="M78.1598 19.8578H79.7632V13.0606H82.3222V11.6863H75.5897V13.0606H78.1598V19.8578Z" fill="black"></path><path d="M87.6266 11.6863H84.6126L81.913 19.8578H83.5574L84.2856 17.6463H87.9551L88.6834 19.8578H90.3278L87.6282 11.6863H87.6266ZM84.7279 16.2704L86.1196 12.0559L87.5113 16.2704H84.7263H84.7279Z" fill="black"></path><path d="M54.4003 0.00159454H51.3863L48.6866 8.17315H50.3311L51.0593 5.96163H54.7288L55.457 8.17315H57.1015L54.4018 0.00159454H54.4003ZM51.5 4.58417L52.8917 0.369654L54.2834 4.58417H51.4984H51.5Z" fill="black"></path><path d="M99.4992 11.6863H97.8959V19.8578H99.4992V11.6863Z" fill="black"></path></svg>